<svg width="32" height="32" viewBox="0 0 32 32" fill="none" xmlns="http://www.w3.org/2000/svg">
        <rect width="32" height="32" rx="7.11111" fill="#6FD08C"/>
        <g clip-path="url(#clip0_4003_2977)">
        <path d="M20.875 7.625V5.875C20.875 5.392 21.2661 5 21.75 5C22.2339 5 22.625 5.392 22.625 5.875V7.625C22.625 8.108 22.2339 8.5 21.75 8.5C21.2661 8.5 20.875 8.108 20.875 7.625ZM10.375 8.5C10.8589 8.5 11.25 8.108 11.25 7.625V5.875C11.25 5.392 10.8589 5 10.375 5C9.89113 5 9.5 5.392 9.5 5.875V7.625C9.5 8.108 9.89113 8.5 10.375 8.5ZM21.75 19.875V17.25H20.875V20.75H23.5V19.875H21.75ZM17.375 20.3125C17.375 22.4834 19.1416 24.25 21.3125 24.25C23.4834 24.25 25.25 22.4834 25.25 20.3125C25.25 18.1416 23.4834 16.375 21.3125 16.375C19.1416 16.375 17.375 18.1416 17.375 20.3125ZM27 20.3125C27 23.4537 24.4537 26 21.3125 26C18.1713 26 15.625 23.4537 15.625 20.3125C15.625 17.1713 18.1713 14.625 21.3125 14.625C24.4537 14.625 27 17.1713 27 20.3125ZM14.5426 23.375H7.75V12H24.375V13.5426C25.0111 13.8314 25.5991 14.205 26.125 14.6521V6.75H23.5V7.625C23.5 8.7765 22.3817 9.67163 21.1742 9.28225C20.4471 9.04775 20 8.31013 20 7.54625V6.75H12.125V7.625C12.125 8.7765 11.0068 9.67163 9.79925 9.28225C9.07213 9.04775 8.625 8.31013 8.625 7.54625V6.75H6V25.125H15.6521C15.205 24.5991 14.8314 24.0111 14.5426 23.375Z" fill="black"/>
        </g>
        <defs>
        <clipPath id="clip0_4003_2977">
        <rect width="21" height="21" fill="white" transform="translate(6 5)"/>
        </clipPath>
        </defs>
      </svg>